# xmcd
#
# Track frame offsets:
#	150
#	12679
#	37239
#	55511
#	76375
#	87778
#	107134
#	123277
#	143909
#	169414
#	195370
#	211252
#	232519
#	250992
#
# Disc length: 3552 seconds
#
# Revision: 0
# Processed by: cddbd v1.4PL0 Copyright (c) Steve Scherf et al.
#
# Submitted via: MusicManager v6.0.1.0
#
DISCID=b50dde0e
DTITLE=Αξέχαστες  Ιταλικές Επιτυχίες - Via Con Me
DYEAR=1900
DGENRE=blues
TTITLE0=Via Con Me
TTITLE1=Cara
TTITLE2=Amore Mio 
TTITLE3=Mare Mare
TTITLE4=Ho Capito Che Ti Amo
TTITLE5=E Penso A Te 
TTITLE6=Soli
TTITLE7=L'Appuntmento
TTITLE8=Questo Piccolo Grande Amore
TTITLE9=Lei
TTITLE10=Sapore Di Sale
TTITLE11=Pazza Idea
TTITLE12=Uno Su Mille
TTITLE13=Io Per Te Margherita
EXTD=
EXTT0=
EXTT1=
EXTT2=
EXTT3=
EXTT4=
EXTT5=
EXTT6=
EXTT7=
EXTT8=
EXTT9=
EXTT10=
EXTT11=
EXTT12=
EXTT13=
PLAYORDER=
